# xmcd CD database file
#
# Track frame offsets:
#	183
#	27263
#	43660
#	61440
#	80350
#	93575
#	105293
#	133920
#	158470
#	175880
#	203908
#	220468
#	234513
#	240235
#
# Disc length: 3423 seconds
#
# Revision: 0
# Processed by: cddbd v1.5PL3 Copyright (c) Steve Scherf et al.
# Submitted via: CDex 1.51
#
DISCID=b40d5d0e
DTITLE=Ben Sidran - Have you met ... Barcelona ?
DYEAR=1900
DGENRE=Jazz
TTITLE0=Good foot
TTITLE1=Can't we talk it over
TTITLE2=Girl talk
TTITLE3=Lullaby in rhythm
TTITLE4=Get to the point
TTITLE5=Have you heard the news
TTITLE6=Old folks
TTITLE7=Have you met miss jones
TTITLE8=Little sherry
TTITLE9=New York state of mind
TTITLE10=Try (the way it was)
TTITLE11=Straight no chaser
TTITLE12=My wife
TTITLE13=Lately
EXTD=
EXTT0=
EXTT1=
EXTT2=
EXTT3=
EXTT4=
EXTT5=
EXTT6=
EXTT7=
EXTT8=
EXTT9=
EXTT10=
EXTT11=
EXTT12=
EXTT13=
PLAYORDER=
